<?xml version="1.0" standalone="no"?>
<svg xmlns="http://www.w3.org/2000/svg" viewBox="0 0 125.016 36" width="125.016" height="36"><g fill="#4ad0ff" color="#4ad0ff" transform="translate(0 3.9999999999999982) scale(0.5600001)"><svg width="50.0" height="50.0" x="0.0" y="0.0" viewBox="0 0 50 50"><path fill="currentColor" fill-rule="evenodd" d="M25 0l25 25-25 25L0 25 25 0zm0 8.333L8.333 25 25 41.667 41.667 25 25 8.333zm0 8.334L33.333 25 25 33.333 16.667 25 25 16.667z"></path></svg></g><path fill="#0019ff" fill-rule="nonzero" d="M10.94 11.71L10.94 11.71Q10.94 17.06 8.18 18.55L8.18 18.55Q7.06 19.15 5.42 19.15L5.42 19.15L3.12 17.66L3.12 23.02L0 23.02L0 5.33L6.14 5.33Q8.93 5.33 9.94 6.90Q10.94 8.47 10.94 11.71ZM7.82 12.19L7.82 12.19Q7.82 8.14 5.23 8.14L5.23 8.14L3.12 8.14L3.12 14.50L5.23 15.86Q6.62 15.86 7.22 14.99Q7.82 14.11 7.82 12.19ZM20.86 12.74L20.86 12.74L20.86 11.50Q20.86 9.72 20.34 8.78Q19.82 7.85 18.19 7.85L18.19 7.85Q15.55 7.85 15.55 11.40L15.55 11.40L15.55 12.65Q15.55 16.46 18.19 16.46L18.19 16.46Q19.90 16.46 20.42 15.19L20.42 15.19Q20.86 14.18 20.86 12.74ZM23.98 12.02L23.98 12.02Q23.98 16.46 22.30 17.98L22.30 17.98Q20.88 19.27 18.19 19.27L18.19 19.27Q14.76 19.27 13.56 17.26L13.56 17.26Q12.43 15.41 12.43 12.02L12.43 12.02Q12.43 8.86 13.56 7.06L13.56 7.06Q14.81 5.04 18.11 5.04Q21.41 5.04 22.69 6.80Q23.98 8.57 23.98 12.02ZM33.74 5.28L33.74 5.28L32.88 8.35Q32.52 8.21 32.06 8.21L32.06 8.21Q30.86 8.21 29.11 9.24L29.11 9.24L29.11 18.94L25.99 18.94L25.99 5.23L28.32 5.23L29.04 6.43L32.35 5.06Q32.59 5.04 33 5.04Q33.41 5.04 33.74 5.28ZM41.69 16.30L41.69 18.94L39.74 18.94Q37.97 18.94 37.04 17.88Q36.12 16.82 36.12 15.36L36.12 15.36L36.12 8.16L34.80 8.16L34.80 5.78L36.12 5.78L36.12 3.10L39.24 3.10L39.24 5.78L41.45 5.78L41.45 8.16L39.24 8.16L39.24 15.17Q39.24 16.30 40.32 16.30L40.32 16.30L41.69 16.30ZM50.09 5.76L50.09 8.14L47.54 8.14L47.54 18.94L44.42 18.94L44.42 8.14L43.13 8.14L43.13 5.76L44.42 5.76L44.42 4.44Q44.42 2.98 45.36 1.92Q46.30 0.86 48.07 0.86L48.07 0.86L50.09 0.86L50.09 3.50L48.62 3.50Q47.54 3.50 47.54 4.63L47.54 4.63L47.54 5.76L50.09 5.76ZM59.90 12.74L59.90 12.74L59.90 11.50Q59.90 9.72 59.39 8.78Q58.87 7.85 57.24 7.85L57.24 7.85Q54.60 7.85 54.60 11.40L54.60 11.40L54.60 12.65Q54.60 16.46 57.24 16.46L57.24 16.46Q58.94 16.46 59.47 15.19L59.47 15.19Q59.90 14.18 59.90 12.74ZM63.02 12.02L63.02 12.02Q63.02 16.46 61.34 17.98L61.34 17.98Q59.93 19.27 57.24 19.27L57.24 19.27Q53.81 19.27 52.61 17.26L52.61 17.26Q51.48 15.41 51.48 12.02L51.48 12.02Q51.48 8.86 52.61 7.06L52.61 7.06Q53.86 5.04 57.16 5.04Q60.46 5.04 61.74 6.80Q63.02 8.57 63.02 12.02ZM68.52 0.89L68.52 18.94L65.40 18.96L65.40 0.89L68.52 0.89ZM73.46 0Q74.59 0 74.93 0.35Q75.26 0.70 75.26 1.81Q75.26 2.93 74.92 3.28Q74.57 3.62 73.45 3.62Q72.34 3.62 71.99 3.26Q71.64 2.90 71.64 1.80Q71.64 0.70 71.99 0.35Q72.34 0 73.46 0ZM75 5.74L75 18.94L71.88 18.94L71.88 5.74L75 5.74ZM85.90 12.74L85.90 12.74L85.90 11.50Q85.90 9.72 85.38 8.78Q84.86 7.85 83.23 7.85L83.23 7.85Q80.59 7.85 80.59 11.40L80.59 11.40L80.59 12.65Q80.59 16.46 83.23 16.46L83.23 16.46Q84.94 16.46 85.46 15.19L85.46 15.19Q85.90 14.18 85.90 12.74ZM89.02 12.02L89.02 12.02Q89.02 16.46 87.34 17.98L87.34 17.98Q85.92 19.27 83.23 19.27L83.23 19.27Q79.80 19.27 78.60 17.26L78.60 17.26Q77.47 15.41 77.47 12.02L77.47 12.02Q77.47 8.86 78.60 7.06L78.60 7.06Q79.85 5.04 83.15 5.04Q86.45 5.04 87.73 6.80Q89.02 8.57 89.02 12.02Z" transform="translate(36, 6.493)"></path></svg>